<svg width="232" height="33" viewBox="0 0 232 33" fill="none" xmlns="http://www.w3.org/2000/svg">
  <path d="M0 0H31.0039V7.56513H20.0279V32.928H11.0197V7.56513H0V0Z" fill="black"/>
  <path d="M39.9786 0H48.8994L62.0181 32.928H52.835L50.736 27.3307H38.142L36.043 32.928H26.9036L39.9786 0ZM40.8532 20.2028H48.0685L44.439 10.5824L40.8532 20.2028Z" fill="black"/>
  <path d="M72.6384 0V25.3629H91.923V32.928H63.5865V0H72.6384Z" fill="black"/>
  <path d="M127.162 16.4859C127.162 27.5493 120.777 32.928 110.632 32.928H94.846V0H110.632C121.04 0 127.162 5.94716 127.162 16.4859ZM110.239 25.3629C115.136 25.3629 118.066 22.7391 118.066 16.4859C118.066 10.8885 115.748 7.56513 110.239 7.56513H103.898V25.3629H110.239Z" fill="black"/>
  <path d="M139.693 0H148.614L161.732 32.928H152.549L150.45 27.3307H137.856L135.757 32.928H126.618L139.693 0ZM140.567 20.2028H147.783L144.153 10.5824L140.567 20.2028Z" fill="black"/>
  <path d="M185.253 19.0222V0H194.305V32.928H183.897L172.353 13.9933V32.928H163.301V0H173.708L185.253 19.0222Z" fill="black"/>
  <path d="M231.885 16.0486L231.929 32.928H225.238L224.67 31.2226C222.44 32.3595 219.816 32.928 216.799 32.928H213.344C203.199 32.928 197.208 26.1937 197.208 16.4859C197.208 6.73428 203.199 0 213.3 0H216.799C224.67 0 230.048 4.0668 231.885 10.8011H222.221C221.04 8.65836 218.854 7.56513 215.749 7.56513H214.087C209.146 7.56513 206.304 10.495 206.304 16.4859C206.304 22.433 209.146 25.3629 214.087 25.3629H215.749C218.81 25.3629 220.997 24.2696 222.221 22.1706H214.262V16.0486H231.885Z" fill="black"/>
  </svg>
  